#!OML:ASF F:\VICON\USERDATA\INSTALL\rory3\rory3.ASF
:FULLY-SPECIFIED
:DEGREES
468
root 2.7735 14.9102 26.3493 631.682 -14.2093 -117.921
lowerback 8.4489 -1.51086 -16.4304
upperback -8.90918 -4.73826 -10.4932
thorax -14.7079 -0.847072 -2.02822
lowerneck -32.4406 8.49881 2.61296
upperneck 1.91639 10.4895 2.25151
head 5.31347 5.56118 1.72534
rclavicle 9.54166e-015 -3.49861e-014
rhumerus 8.00628 -33.8257 30.7265
rradius 28.2524
rwrist 5.55439
rhand -31.8081 -439.283
rfingers 7.12502
rthumb 174.937 -70.7975
lclavicle 9.54166e-015 -3.49861e-014
lhumerus 52.1276 31.8101 16.5635
lradius 25.9124
lwrist 35.8301
lhand -52.9623 -623.249
lfingers 7.12502
lthumb -25.4296 -68.4276
rfemur -21.0872 -2.66134 21.5983
rtibia 48.7437
rfoot 0.818102 -23.8947
rtoes -7.89351
lfemur -78.4192 38.2683 22.2358
ltibia 47.6201
lfoot -35.6392 29.1807
ltoes 3.33213
469
root 2.81207 14.8833 26.6092 631.917 -12.8568 -119.923
lowerback 9.69496 -1.71979 -17.6212
upperback -8.76773 -5.42419 -9.9558
thorax -15.1393 -0.959854 -0.63386
lowerneck -32.2576 8.82471 2.84596
upperneck 1.99984 10.8603 1.91536
head 5.34413 5.70632 1.62544
rclavicle 5.40694e-014 -9.85972e-014
rhumerus 6.15651 -33.4333 30.7494
rradius 28.058
rwrist 5.40247
rhand -30.9058 -434.206
rfingers 7.12502
rthumb 175.808 -75.8559
lclavicle 5.40694e-014 -9.85972e-014
lhumerus 52.6573 33.0077 19.661
lradius 25.8306
lwrist 34.5875
lhand -53.6457 -622.677
lfingers 7.12502
lthumb -26.0841 -69.0946
rfemur -22.2584 -2.47251 23.9685
rtibia 48.7613
rfoot 1.49515 -24.4972
rtoes -10.4337
lfemur -81.7736 36.6967 20.4363
ltibia 50.0863
lfoot -36.046 29.5499
ltoes 3.2242
470
root 2.84999 14.8546 26.8298 631.731 -10.8872 -121.572
lowerback 10.883 -2.00804 -19.2941
upperback -8.76768 -6.31211 -9.8632
thorax -15.6825 -1.09853 0.517087
lowerneck -30.9566 9.64288 4.14999
upperneck 1.9624 11.5666 1.62633
head 5.24526 6.0408 1.38596
rclavicle 5.08889e-014 9.54166e-014
rhumerus 4.70676 -32.4194 29.532
rradius 28.0784
rwrist 5.08347
rhand -30.4257 -433.341
rfingers 7.12502
rthumb 176.271 -76.7115
lclavicle 5.08889e-014 9.54166e-014
lhumerus 52.398 33.7338 21.0247
lradius 25.6167
lwrist 33.3943
lhand -54.0578 -625.413
lfingers 7.12502
lthumb -26.4787 -66.4174
rfemur -23.0662 -2.37745 25.5606
rtibia 48.354
rfoot 1.38269 -25.473
rtoes -18.0283
lfemur -84.127 34.9995 18.6083
ltibia 52.3792
lfoot -36.7193 29.3885
ltoes 7.56404
471
root 2.892 14.8193 27.0621 631.222 -8.79437 -122.999
lowerback 12.1185 -1.4736 -21.1842
upperback -7.89944 -6.13839 -9.48436
thorax -15.2397 -0.882406 1.98004
lowerneck -33.5632 8.92107 1.79218
upperneck 2.85975 11.2936 2.24504
head 5.71702 5.91871 2.01889
rclavicle -6.36111e-014 1.04958e-013
rhumerus 1.78895 -32.6849 30.583
rradius 28.2108
rwrist 5.09124
rhand -30.3779 -434.462
rfingers 7.12502
rthumb 176.318 -75.5904
lclavicle -6.36111e-014 1.04958e-013
lhumerus 54.0548 35.2396 25.0238
lradius 25.8842
lwrist 33.2161
lhand -54.9462 -629.201
lfingers 7.12502
lthumb -27.3287 -62.7597
rfemur -23.6374 -2.44505 26.9272
rtibia 47.6077
rfoot 1.75311 -24.0375
rtoes -13.1821
lfemur -85.8449 33.4006 16.7743
ltibia 54.351
lfoot -37.2472 29.177
ltoes 10.9343
472
root 2.94218 14.7741 27.3344 631.086 -8.23639 -124.356
lowerback 12.7348 -1.46349 -21.2669
upperback -7.58873 -6.2514 -9.05586
thorax -15.1456 -0.922535 2.59261
lowerneck -32.571 8.93726 2.42146
upperneck 2.66477 11.1343 2.42055
head 5.5532 5.89012 1.92235
rclavicle 1.04958e-013 6.99722e-014
rhumerus -0.102862 -32.12 29.8278
rradius 28.4266
rwrist 4.88413
rhand -29.3246 -433.639
rfingers 7.12502
rthumb 177.335 -76.3979
lclavicle 1.04958e-013 6.99722e-014
lhumerus 54.4387 35.6384 26.3004
lradius 25.6168
lwrist 33.4215
lhand -55.1129 -628.801
lfingers 7.12502
lthumb -27.4881 -63.1852
rfemur -24.6302 -2.69187 29.9752
rtibia 46.5265
rfoot 0.552038 -25.1272
rtoes -20.6084
lfemur -88.4107 32.7688 15.6756
ltibia 56.0889
lfoot -37.0394 28.6352
ltoes 11.3468
473
root 2.98948 14.7328 27.6031 631.132 -8.13632 -126.006
lowerback 13.2463 -1.72805 -20.5616
upperback -7.31269 -6.54684 -8.6242
thorax -15.029 -1.12107 2.84795
lowerneck -32.3967 8.96653 2.5673
upperneck 2.81941 11.1207 2.62964
head 5.5788 5.91323 1.96785
rclavicle 2.8625e-014 6.36111e-015
rhumerus -1.81645 -30.9259 28.8464
rradius 28.8504
rwrist 4.01905
rhand -26.8606 -430.934
rfingers 7.12502
rthumb 179.715 -79.0867
lclavicle 2.8625e-014 6.36111e-015
lhumerus 54.235 35.6933 26.5388
lradius 25.2806
lwrist 33.5904
lhand -55.8479 -807.99
lfingers 7.12502
lthumb -28.1909 -60.0901
rfemur -25.8451 -3.79852 33.5306
rtibia 45.204
rfoot -0.489602 -25.1351
rtoes -21.1052
lfemur -91.6652 32.2983 14.2332
ltibia 57.5663
lfoot -36.3822 27.7655
ltoes 10.5591
474
root 3.02865 14.6852 27.8634 631.283 -8.18871 -127.971
lowerback 13.9043 -1.97464 -19.3472
upperback -6.99838 -6.76969 -8.28739
thorax -15.0298 -1.34087 2.72417
lowerneck -31.9775 8.69456 2.49117
upperneck 2.57144 10.8251 2.73162
head 5.43975 5.7919 1.94902
rclavicle -1.24042e-013 -6.99722e-014
rhumerus -3.45603 -29.4268 28.2952
rradius 28.9686
rwrist 3.3477
rhand -25.4622 -429.649
rfingers 7.12502
rthumb 181.065 -80.3741
lclavicle -1.24042e-013 -6.99722e-014
lhumerus 54.2998 35.2769 27.0823
lradius 24.8014
lwrist 32.899
lhand -57.3014 -808.863
lfingers 7.12502
lthumb -29.5792 -61.1999
rfemur -27.2424 -5.67767 37.2057
rtibia 43.7801
rfoot 1.88222 -24.0199
rtoes -24.8299
lfemur -95.2476 31.6241 12.4863
ltibia 58.8461
lfoot -35.5211 26.8014
ltoes 9.51616
475
root 3.05469 14.6362 28.1274 631.265 -8.58489 -129.736
lowerback 14.471 -2.26096 -17.4126
upperback -6.78825 -6.90846 -8.32164
thorax -15.2496 -1.5946 1.76323
lowerneck -30.375 8.41201 3.23735
upperneck 1.67305 10.3274 2.85565
head 4.97579 5.60287 1.7285
rclavicle -9.22361e-014 -5.08889e-014
rhumerus -5.47887 -27.1339 27.1651
rradius 29.3286
rwrist 2.56722
rhand -24.8147 -430.426
rfingers 7.12502
rthumb 181.691 -79.6007
lclavicle -9.22361e-014 -5.08889e-014
lhumerus 54.2899 34.2286 26.9428
lradius 24.076
lwrist 31.1384
lhand -57.3015 -797.642
lfingers 7.12502
lthumb -29.5793 -49.9789
rfemur -28.6271 -7.64067 41.2047
rtibia 42.3703
rfoot 1.80737 -22.2306
rtoes -25.2734
lfemur -98.5175 30.9982 11.1845
ltibia 60.0039
lfoot -34.53 25.7536
ltoes 8.60115
476
root 3.06769 14.5981 28.4047 630.795 -8.90273 -130.908
lowerback 15.1725 -2.55568 -15.5766
upperback -6.52693 -7.07273 -7.9152
thorax -15.4344 -1.84261 1.37252
lowerneck -30.3788 8.53085 3.05719
upperneck 2.1433 10.4989 2.97993
head 5.11548 5.6816 1.83036
rclavicle 3.18055e-014 5.40694e-014
rhumerus -6.13336 -25.7031 25.4618
rradius 29.6514
rwrist 1.65886
rhand -25.8923 -428.302
rfingers 7.12502
rthumb 180.65 -81.7192
lclavicle 3.18055e-014 5.40694e-014
lhumerus 51.7919 33.5651 25.1508
lradius 24.0137
lwrist 29.7186
lhand -55.0926 -784.08
lfingers 7.12502
lthumb -27.4687 -36.0635
rfemur -29.7928 -9.22492 45.0463
rtibia 41.1964
rfoot 2.89606 -20.9883
rtoes -25.6613
lfemur -100.867 30.5545 10.3702
ltibia 61.0529
lfoot -33.6435 24.5779
ltoes 8.05446
477
root 3.09336 14.6191 28.6052 629.588 -7.01319 -132.023
lowerback 16.3432 -2.51699 -16.5905
upperback -5.99963 -7.40478 -7.93409
thorax -15.3696 -1.89763 2.03729
lowerneck -30.5648 8.16926 1.82705
upperneck 2.2523 10.3697 3.84733
head 5.07829 5.68234 2.28159
rclavicle -8.26944e-014 -1.59028e-015
rhumerus -6.78493 -24.6262 23.72
rradius 30.0013
rwrist 0.749519
rhand -28.6052 -423.184
rfingers 7.12502
rthumb 178.03 -86.8455
lclavicle -8.26944e-014 -1.59028e-015
lhumerus 48.6721 32.4662 22.3926
lradius 24.2598
lwrist 30.4949
lhand -53.7186 -781.757
lfingers 7.12502
lthumb -26.1539 -33.538
rfemur -30.4517 -11.0877 46.4519
rtibia 40.3599
rfoot 4.8661 -18.7291
rtoes -30.2989
lfemur -101.811 29.4566 7.74206
ltibia 61.9592
lfoot -33.324 23.6629
ltoes 7.61866
478
root 3.11542 14.6171 28.8251 628.912 -6.25756 -132.899
lowerback 16.3512 -2.04687 -16.3778
upperback -4.84383 -6.57368 -7.29407
thorax -13.9865 -1.70149 2.50908
lowerneck -33.6223 6.91385 -1.19998
upperneck 3.05903 9.68978 4.71509
head 5.57548 5.39945 3.07179
rclavicle -2.06736e-013 -8.11041e-014
rhumerus -8.5001 -24.5306 24.0246
rradius 30.1873
rwrist -0.632991
rhand -29.7891 -420.242
rfingers 7.12502
rthumb 176.886 -89.8008
lclavicle -2.06736e-013 -8.11041e-014
lhumerus 48.4578 33.102 23.8136
lradius 23.9052
lwrist 28.9089
lhand -56.0737 -780.796
lfingers 7.12502
lthumb -28.4066 -32.9321
rfemur -31.5682 -12.4487 48.8783
rtibia 39.9761
rfoot 4.49067 -16.6832
rtoes -31.1848
lfemur -103.244 28.9517 6.12575
ltibia 62.7581
lfoot -32.7282 22.8898
ltoes 6.97324
479
root 3.12078 14.6149 29.0431 628.324 -5.77592 -133.457
lowerback 16.6581 -2.14074 -15.7581
upperback -4.54054 -6.59798 -7.28055
thorax -13.8498 -1.79136 2.2305
lowerneck -33.5449 7.31606 0.0793609
upperneck 3.42847 9.76496 4.20162
head 5.76537 5.40413 2.73744
rclavicle -3.49861e-014 1.36764e-013
rhumerus -8.85573 -23.2156 21.7716
rradius 30.1005
rwrist -1.5988
rhand -28.4788 -422.33
rfingers 7.12502
rthumb 178.152 -87.6984
lclavicle -3.49861e-014 1.36764e-013
lhumerus 45.9302 32.1533 21.2321
lradius 24.2353
lwrist 28.4358
lhand -57.4386 -774.428
lfingers 7.12502
lthumb -29.7102 -26.7889
rfemur -32.954 -13.4441 51.528
rtibia 40.1349
rfoot 3.37637 -15.8258
rtoes -29.2277
lfemur -104.432 28.6403 5.11472
ltibia 63.4257
lfoot -32.1463 22.243
ltoes 6.58914
480
root 3.12 14.6367 29.2508 627.453 -4.44725 -133.744
lowerback 17.5182 -2.13262 -15.732
upperback -4.57719 -6.798 -7.73105
thorax -14.4637 -1.84333 1.78496
lowerneck -31.9952 7.95859 2.06642
upperneck 3.41734 9.95643 3.43166
head 5.68633 5.4448 2.16122
rclavicle -8.26944e-014 -6.36111e-015
rhumerus -9.16258 -21.473 18.9862
rradius 30.1968
rwrist -2.2207
rhand -26.5061 -425.108
rfingers 7.12502
rthumb 180.057 -84.9122
lclavicle -8.26944e-014 -6.36111e-015
lhumerus 42.669 29.9959 17.5474
lradius 24.6052
lwrist 29.1574
lhand -56.8554 -767.039
lfingers 7.12502
lthumb -29.1534 -19.3021
rfemur -33.9892 -13.612 52.8858
rtibia 40.9006
rfoot 2.38648 -13.6457
rtoes -32.4973
lfemur -104.814 28.2337 3.89752
ltibia 64.0125
lfoot -31.6525 21.9046
ltoes 6.01408
481
root 3.11387 14.6789 29.4476 626.41 -2.61518 -133.89
lowerback 18.2593 -1.71503 -16.2933
upperback -4.54666 -6.5561 -7.85083
thorax -14.8907 -1.65802 1.90573
lowerneck -30.5487 7.49576 1.62163
upperneck 2.99411 9.51654 3.84016
head 5.3345 5.25543 2.23217
rclavicle -4.77083e-014 -1.63799e-013
rhumerus -9.71424 -19.6273 17.2233
rradius 30.5725
rwrist -3.83927
rhand -26.9661 -425.298
rfingers 7.12502
rthumb 179.613 -84.7221
lclavicle -4.77083e-014 -1.63799e-013
lhumerus 40.1282 28.0515 15.9393
lradius 24.8204
lwrist 29.6457
lhand -55.5934 -761.144
lfingers 7.12502
lthumb -27.9476 -13.2041
rfemur -34.9356 -13.3953 53.518
rtibia 42.2987
rfoot 1.00435 -12.5993
rtoes -32.1701
lfemur -104.561 27.7236 2.77149
ltibia 64.5325
lfoot -31.2156 21.9884
ltoes 5.51261
482
root 3.09062 14.7088 29.649 625.629 -1.26621 -133.972
lowerback 18.5172 -1.54203 -16.2936
upperback -4.18016 -6.33602 -7.82238
thorax -14.6221 -1.59642 1.90393
lowerneck -31.0874 7.30522 1.31236
upperneck 3.25017 9.33751 4.09306
head 5.46856 5.19411 2.36823
rclavicle 1.145e-013 5.56597e-014
rhumerus -9.9733 -19.9582 15.2175
rradius 30.5284
rwrist -3.286
rhand -26.745 -426.807
rfingers 7.12502
rthumb 179.826 -83.2131
lclavicle 1.145e-013 5.56597e-014
lhumerus 38.019 27.3124 15.0191
lradius 25.0924
lwrist 29.7207
lhand -53.3912 -757.293
lfingers 7.12502
lthumb -25.8405 -9.0289
rfemur -36.0969 -12.9152 54.5163
rtibia 44.2444
rfoot -1.09712 -11.953
rtoes -30.6283
lfemur -104.439 27.2296 2.42523
ltibia 65.0141
lfoot -30.6432 22.4654
ltoes 5.8702
